<?xml version="1.0" encoding="UTF-8"?>
<svg id="Layer_2" data-name="Layer 2" xmlns="http://www.w3.org/2000/svg" viewBox="0 0 78.8 43.59">
  <defs>
    <style>
      .cls-1 {
        fill: #ec444a;
      }

      .cls-2 {
        fill: #c52c31;
      }

      .cls-3 {
        fill: #fff;
      }

      .cls-4 {
        fill: #d83035;
      }

      .cls-5 {
        fill: #ea353a;
      }
    </style>
  </defs>
  <g id="Layer_1-2" data-name="Layer 1">
    <g>
      <path class="cls-3" d="M77.98,28.93c-.53-.9-1.26-1.6-2.21-2.09-.94-.51-2.03-.77-3.26-.77s-2.37.27-3.36.82c-.99.52-1.78,1.25-2.35,2.18-.56.93-.84,1.99-.84,3.19s.28,2.3.86,3.24c.59.93,1.41,1.66,2.45,2.19,1.04.51,2.25.76,3.62.76,1.07,0,2.03-.16,2.86-.5.83-.34,1.54-.84,2.13-1.51l-2.35-2.33c-.35.4-.74.7-1.17.89-.42.17-.91.26-1.47.26s-1.05-.11-1.44-.33c-.38-.23-.68-.56-.89-.99-.03-.07-.05-.14-.07-.21l8.11-.05c.08-.35.13-.66.15-.91.03-.28.05-.53.05-.77,0-1.15-.28-2.18-.82-3.07ZM70.47,30.85c.02-.07.04-.14.07-.2.19-.44.46-.79.82-1.03.35-.24.76-.36,1.24-.36s.85.11,1.16.31c.3.21.52.52.67.94.04.1.07.2.11.31l-4.07.03Z"/>
      <path class="cls-3" d="M60,26.36v.43c-.2-.12-.42-.22-.65-.31-.58-.24-1.21-.36-1.9-.36-1.1,0-2.08.25-2.92.77-.85.51-1.52,1.2-2,2.08-.48.87-.72,1.84-.72,2.93s.24,2.05.72,2.93c.48.88,1.15,1.58,2,2.09.84.51,1.82.77,2.92.77.69,0,1.32-.12,1.9-.34.19-.08.36-.16.53-.26v.36c0,.7-.23,1.24-.67,1.6-.44.37-1.04.56-1.8.56-.64,0-1.19-.12-1.64-.36-.44-.23-.85-.54-1.22-.94l-2.78,2.76c.56.8,1.35,1.42,2.37,1.85,1.03.45,2.2.67,3.53.67s2.49-.26,3.53-.79c1.04-.51,1.86-1.24,2.47-2.19.61-.94.91-2.06.91-3.36v-10.89h-4.58ZM59.3,33.41c-.27.18-.6.27-.98.27s-.69-.09-.96-.27c-.26-.19-.46-.42-.6-.69-.15-.29-.22-.57-.22-.84,0-.29.07-.57.22-.84.14-.29.35-.52.62-.7.27-.17.59-.26.96-.26.39,0,.71.09.96.26.27.18.48.4.63.67.14.28.21.56.21.87s-.07.59-.21.86c-.15.27-.36.5-.63.67Z"/>
      <path class="cls-3" d="M50.65,30.46v7.71h-4.7v-6.63c0-.46-.14-.81-.41-1.05-.25-.26-.58-.39-.98-.39-.27,0-.52.06-.75.17-.2.11-.37.28-.5.5-.11.21-.17.47-.17.77v6.63h-4.7v-11.81h4.7v.64c.17-.12.36-.23.55-.33.76-.37,1.6-.55,2.55-.55.85,0,1.6.19,2.25.57.68.37,1.2.88,1.59,1.54.38.64.57,1.38.57,2.23Z"/>
      <path class="cls-3" d="M31.65,26.36v.65c-.29-.22-.61-.39-.98-.53-.58-.24-1.21-.36-1.9-.36-1.1,0-2.08.26-2.93.79-.85.51-1.51,1.23-1.99,2.16-.48.93-.72,1.99-.72,3.19s.24,2.27.72,3.19c.48.92,1.14,1.64,1.99,2.16.85.53,1.83.8,2.93.8.69,0,1.32-.12,1.9-.34.37-.15.69-.33.98-.56v.66h4.58v-11.81h-4.58ZM31.24,33.73c-.35.36-.82.55-1.41.55-.37,0-.71-.09-1.01-.27-.31-.17-.55-.41-.72-.72-.16-.3-.24-.64-.24-1.03s.09-.73.26-1.03c.18-.3.41-.54.7-.72.3-.18.65-.26,1.03-.26s.72.08,1.01.26c.3.18.53.42.69.72.16.29.24.63.24,1.03,0,.59-.18,1.08-.55,1.47Z"/>
      <path class="cls-3" d="M23.58,26.86l-2.64,3.75c-.11-.13-.28-.24-.5-.32-.21-.09-.46-.14-.75-.14-.48,0-.84.14-1.08.43-.24.27-.36.67-.36,1.2v6.39h-4.7v-11.81h4.7v.62c.81-.58,1.79-.86,2.98-.86.54,0,1.01.06,1.39.19.4.13.72.31.96.55Z"/>
      <path class="cls-2" d="M2.81,25.09c.9-.41,1.89-.63,2.94-.63.61,0,1.19.08,1.76.22.27.06.54.12.81.21.49-4.95.97-9.9,1.45-14.85.14-1.42.28-2.87.06-4.28-.22-1.41-.85-2.81-1.97-3.63-.24-.17-.52-.32-.8-.25-.22.05-.4.23-.56.41C1.05,8.22-.71,17.23,2.68,24.82c.04.09.08.18.13.27Z"/>
      <path class="cls-4" d="M8.86,9.36C11.52,5.15,16.51,1.26,21.18,0c.98-.26,1.05,5.37,1,5.82-.33,3.05-1.38,5.98-2.78,8.65-1.35,2.57-3.02,4.92-4.76,7.2h-.01c-1.28,1.69-2.59,3.41-4.42,4.37-1.23-.99-2.78-1.58-4.48-1.58-.46,0-.9.04-1.34.13.51-5.21,1.67-10.82,4.45-15.23Z"/>
      <path class="cls-3" d="M5.75,37.5c3.17,0,5.75-2.6,5.75-5.8s-2.57-5.8-5.75-5.8S0,28.49,0,31.7s2.57,5.8,5.75,5.8Z"/>
      <path class="cls-5" d="M28.46,7.09c-4.81-.12-10.59,2.22-14.2,5.51-3.41,3.1-5.8,7.52-7.55,11.92,2.18.3,4.05,1.58,5.15,3.39v-2.3c0-.55.45-1,1-1h5.74c1.59-1.27,3.12-2.62,4.52-4.12,2.02-2.17,3.76-4.69,4.84-7.53.16-.41,1.5-5.84.5-5.87Z"/>
      <path class="cls-1" d="M11.86,25.61c0-.55.45-1,1-1h6.34c.09,0,.17-.01.25-.03.59-.14,1.2-.21,1.83-.21.24,0,.47.02.71.05,1.21-.88,2.33-1.9,3.24-3.12.19-.25,2.2-3.75,1.5-3.99-3.34-1.14-7.85-.79-11.02.71-3.05,1.44-5.62,4.06-7.74,6.79,1.63.54,2.99,1.66,3.87,3.1v-2.31Z"/>
    </g>
  </g>
</svg>