<?xml version="1.0" encoding="UTF-8"?>
<svg id="Layer_2" data-name="Layer 2" xmlns="http://www.w3.org/2000/svg" xmlns:xlink="http://www.w3.org/1999/xlink" viewBox="0 0 416.46 416.46">
  <defs>
    <style>
      .cls-1 {
        fill: #d62028;
      }

      .cls-2 {
        fill: #24212d;
      }

      .cls-3 {
        fill: #f04a23;
      }

      .cls-4 {
        fill: #d52631;
      }

      .cls-5 {
        fill: url(#radial-gradient);
      }

      .cls-6 {
        fill: #f6871f;
      }

      .cls-7 {
        fill: #2b292a;
      }

      .cls-8 {
        fill: #f99b1c;
      }

      .cls-9 {
        fill: #e92835;
      }

      .cls-10 {
        stroke-width: .69px;
      }

      .cls-10, .cls-11 {
        fill: #fff;
      }

      .cls-10, .cls-12 {
        stroke: #fff;
      }

      .cls-10, .cls-12, .cls-13 {
        stroke-miterlimit: 10;
      }

      .cls-14 {
        fill: #e02b36;
      }

      .cls-12 {
        stroke-width: 1.5px;
      }

      .cls-12, .cls-13 {
        fill: none;
      }

      .cls-15 {
        fill: #ef404c;
      }

      .cls-16 {
        fill: #c22932;
      }

      .cls-17 {
        fill: #ef3c45;
      }

      .cls-18 {
        fill: #ee323c;
      }

      .cls-13 {
        stroke: #f47d20;
      }
    </style>
    <radialGradient id="radial-gradient" cx="196.6" cy="98.96" fx="196.6" fy="98.96" r="16.54" gradientUnits="userSpaceOnUse">
      <stop offset=".85" stop-color="#ef394c"/>
      <stop offset="1" stop-color="#f15c22"/>
    </radialGradient>
  </defs>
  <g id="Layer_1-2" data-name="Layer 1">
    <circle class="cls-7" cx="208.23" cy="208.23" r="208.23"/>
    <path class="cls-16" d="M197.96,65.3c-.38-.19-.74-.42-1.08-.7-.94-.75-1.62-1.77-2.25-2.8-8.66-14.32-6.78-32.6,3.45-45.58.3-.38.63-.77,1.09-.93.57-.19,1.2.04,1.73.33,2.51,1.37,4.12,4.01,4.87,6.77.75,2.76.75,5.66.75,8.51-.02,11.6-.05,23.19-.07,34.79-2.84.47-6.02.86-8.5-.4Z"/>
    <path class="cls-4" d="M199.68,62.14c-.09-.15-.16-.31-.22-.48-.13-.39-.14-.82-.14-1.23,0-10.48,1.3-21.93,6.28-31.31,4.73-8.91,14.42-17.73,24-21.23,2-.73,3.3,10.43,3.29,11.32-.07,6.13-1.69,12.17-4.09,17.78-2.31,5.39-5.35,10.42-8.54,15.32-2.79,4.27-5.65,8.66-10.55,10.74-2.12.9-8.43,1.78-10.02-.92Z"/>
    <path class="cls-14" d="M203.17,64.66c-.04-.17-.07-.34-.08-.52-.02-.41.09-.82.2-1.22,2.79-10.07,7.08-20.73,14.36-28.42,6.92-7.31,18.58-13.21,28.71-14.02,2.12-.17.4,10.9.15,11.75-1.7,5.87-4.86,11.25-8.66,16-3.65,4.56-7.91,8.59-12.28,12.45-3.81,3.36-7.73,6.83-13,7.52-2.28.3-8.58-.53-9.39-3.55Z"/>
    <path class="cls-18" d="M205.77,61.95c0-.13.02-.25.05-.38.07-.29.23-.56.39-.81,4.05-6.46,9.28-13.01,15.98-16.87,6.36-3.67,15.75-5.35,23-3.81,1.52.32-2,7.7-2.35,8.25-2.42,3.75-5.75,6.85-9.4,9.38-3.51,2.43-7.32,4.36-11.19,6.14-3.37,1.55-6.83,3.16-10.66,2.54-1.66-.27-5.89-2.16-5.82-4.44Z"/>
    <path class="cls-11" d="M343.38,259.92c4,2.64,6.96,5.4,6.93,7.91-.08,6.6-16.14,16.29-21.1,18.96-8.79,4.72-18.7,7.18-28.68,7.18-33.54,0-60.73-27.19-60.73-60.73,0-9.88.42-11.98,10.35-12.61,9.44-.6,19.15-.39,28.13,2.88,5.12,1.86,9.83,4.66,14.51,7.45,10.39,6.18,20.78,12.35,31.17,18.53,3.48,2.07,12.85,6.1,19.42,10.44Z"/>
    <path class="cls-3" d="M242.3,351.11s-5.21-11.02-16.68-11.16-11.95,5.74-11.95,5.74c0,0,12.21-1.34,19.94,5.94"/>
    <path class="cls-3" d="M296.02,350.92s-5.21-11.02-16.68-11.16c-11.47-.13-11.95,5.74-11.95,5.74,0,0,12.21-1.34,19.94,5.94"/>
    <path class="cls-9" d="M310.42,201.7c-.15-.26-.27-.54-.36-.84-.21-.68-.21-1.4-.2-2.12.3-17.99,2.86-37.62,11.67-53.58,8.37-15.18,25.27-30.05,41.81-35.77,3.46-1.2,5.37,18,5.32,19.53-.3,10.52-3.24,20.86-7.53,30.42-4.12,9.19-9.48,17.74-15.11,26.07-4.91,7.26-9.94,14.72-18.42,18.15-3.67,1.48-14.53,2.82-17.18-1.86Z"/>
    <path class="cls-18" d="M317.18,199.37c-.15-.33-.2-.65-.15-.95,3.9-22,17.07-41.05,35.5-53.39,10.89-7.29,24.55-15.91,38.07-17.08,1.27-.11,2.92,9.05,3.02,9.81,1.34,9.47-1.15,19.06-5.48,27.47-10.51,20.43-30.74,35.5-53.25,39.89-5.48,1.07-14.89.5-17.72-5.74Z"/>
    <path class="cls-15" d="M322.19,206.02c-.03-.33.03-.63.17-.88,10.42-18.03,28.02-30.53,48.1-35.48,11.86-2.93,26.57-6.13,38.8-2.85,1.15.31-.33,8.86-.47,9.56-1.84,8.72-7.08,16.33-13.54,22.32-15.71,14.55-38.23,21.32-59.35,18.01-5.15-.81-13.21-4.3-13.7-10.67Z"/>
    <path class="cls-6" d="M252.37,312.09s-2.62,36.82-11.32,36.7-25.26-5.6-32.41,3.57c0,0-4.65,5.24-1.31,11.92,0,0,10.84-9.06,31.22-4.89,0,0,4.41,6.43,11.92,2.26,7.51-4.17,9.65-28.72,9.65-28.72l1.79-21.93"/>
    <path class="cls-1" d="M236.98,289.79l6.99,19.3s1.48,4.63,8.08,4.83,9.65.3,9.65.3c0,0,5.71-.39,6.3-9.06s-.2-9.55-.2-9.55"/>
    <path class="cls-6" d="M306.23,311.39s-2.62,36.82-11.32,36.7-25.26-5.6-32.41,3.57c0,0-4.65,5.24-1.31,11.92,0,0,10.84-9.06,31.22-4.89,0,0,4.41,6.43,11.92,2.26,7.51-4.17,9.65-28.72,9.65-28.72l1.79-21.93"/>
    <path class="cls-17" d="M154.4,86.7c2.74-9.15,8.19-17.1,17.11-22.58,15.15-9.33,36.11-11.38,52.4-3.97,22.15,10.07,35.81,36.07,31.54,60.03-2.62,14.73-11.21,29.27-7.32,43.72.56,2.07,1.43,4.16,3.07,5.53,2.98,2.48,7.35,1.87,11.19,1.41,25.74-3.08,52.73,8.01,68.86,28.3,5.58,7.02,9.88,14.96,15.31,22.1,5.43,7.13,12.33,13.64,20.95,16.11-3.06,5.31-12.06,5.45-15.28.23,3.72,5.23,9.92,8.62,16.34,8.93.92,2.43-1.92,4.95-4.5,4.71s-4.65-2.19-6.38-4.13c3.07,5.81,9.8,9.46,16.34,8.86-.19,7.04-7.21,11.85-13.84,14.23-11.07,3.98-23.06,4.65-34.81,4.18-16.77-.67-33.78-3.69-48.5-11.76-14.72-8.07-26.95-21.71-30.55-38.1-.67,20.92,16.12,39.27,35.6,46.94s41.14,6.9,62.02,5.5c-14.94,18.23-40.92,22.85-64.48,22.44-30.55-.53-63.2-8.75-82.77-32.21-12.82-15.37-18.56-35.96-17.71-55.96s7.94-39.4,18.32-56.52c.8-1.32,2.67-4.06,1.85-5.72s-2.58-1.13-4.17-1.27c-4.01-.35-7.98-1.18-11.79-2.46-7.46-2.5-14.36-6.69-19.92-12.26-4.35-4.36-7.94-9.6-9.62-15.53-1.33-4.69-1.42-9.64-1.44-14.51-.03-5.65.65-11.14,2.18-16.25Z"/>
    <path class="cls-18" d="M318.5,286.68c1-.03,1.9.17,2.57,1.03.93,1.2,1.27,3.53,1.65,4.98.72,2.69,1.35,5.46,1.69,8.22.16,1.3.46,3.07-.24,4.28-.81,7.27-5.79,8.62-5.79,8.62,0,0-14.94-.27-14.94-.27-5.68-3.58-9.03-10.34-11.47-16.35-1.15-2.81-2.12-5.69-2.97-8.61-.31-1.07-.89-2.12-.7-3.25,9.17,1.87,18.36,2.66,27.71,1.64.84-.09,1.69-.26,2.49-.28Z"/>
    <path class="cls-8" d="M150.22,92.37c-.18.28-.38.55-.58.81-1.93,2.45-4.38,4.63-6.82,6.55-5.57,4.38-11.85,7.04-18.56,9.14-4.52,1.42-8.41,5.14-11.16,8.95-5.83,8.04-8.26,18.49-8.57,28.29-.12,3.96.26,7.94,1.22,11.79,1.02,4.07,1.27,5.16,5.35,2.83.75-.43,1.54-.78,2.32-1.15,12.66-6.01,26.08-10.74,39.22-15.58,3.7-1.36,7.26-3.09,11-4.35,4.54-1.52,9.32-1.21,13.79-2.82s8.06-4.41,10.74-8.07c1.45-1.99,2.62-4.23,3.02-6.66.55-3.37-.44-6.79-1.64-9.99-5.17-13.71-13.74-26.13-29.59-27.71-1.88-.19-3.98-.13-5.36,1.15-2,1.86-2.88,4.56-4.36,6.81Z"/>
    <path class="cls-13" d="M107.66,161.33s7.59-4.66,17-13.81c16.78-16.31,36.07-3.4,57.21-38.72"/>
    <ellipse class="cls-10" cx="199.15" cy="100.92" rx="32.98" ry="35.99"/>
    <ellipse class="cls-5" cx="196.6" cy="98.96" rx="16.6" ry="16.49"/>
    <ellipse class="cls-2" cx="196.83" cy="97.63" rx="10.34" ry="14.07"/>
    <path class="cls-11" d="M187.64,93.13c-.13-.54-.06-1.12.06-1.67,1.15-5.53,6.43-10.16,12.53-7.94,3.49,1.27,5.99,4.36,7.22,7.72-3.52,1.23-7.41.4-11.15.09-.28-.02-.58-.04-.82.1-.34.19-.43.61-.55.97-.59,1.81-2.65,3.06-4.62,2.79-1.18-.16-2.34-.9-2.64-1.99,0-.03-.01-.05-.02-.08Z"/>
    <path class="cls-12" d="M5.49,356.54c7.49-1.43,14.81.51,22.31.85,29.71,1.34,60.25-9.84,88.68-1.11"/>
    <path class="cls-12" d="M145.07,355.86c15.27.72,30.59.26,45.79-1.38,4.49-.48,9.01-1.08,13.28-2.56,3.83-1.32,7.45-3.35,11.44-4.1,6.74-1.27,13.65,1.26,19.6,4.69s11.36,7.79,17.57,10.7c8.64,4.05,18.34,5.1,27.83,6.09,20.71,2.16,41.69,5.81,62.42,5.19,22.78-.69,45.59-.3,68.34,1.17"/>
    <path class="cls-12" d="M3.37,381.64c7.42-5.19,16.45-3.2,24.85-4.41,12.25-1.76,24.43-4.84,37.02-4.15,9.3.51,18.21,3.08,27.37,4.46,9.53,1.43,19.38,1.54,28.96.34,16.78-2.11,33.54-8.21,50.11-5.22,5.41.98,10.48,2.89,15.78,4.2,16.54,4.07,35,3.58,52.13,4.14"/>
    <path class="cls-12" d="M259,383.79c9.4-.06,19.59-.76,28.89.17,6.04.6,11.87,2.33,17.98,2.09,5.24-.2,10.22-.9,15.56-.9,6.19,0,12.38.4,18.45,1.18,3.31.43,6.67.97,10.03.74,4.06-.29,7.72-1.69,11.71-2.25,6.28-.88,12.73.38,19.07,1.1,11.05,1.25,22.38.82,33.58.39"/>
    <path class="cls-11" d="M121.02,361.22c-.49.02-.89-.07-1.25-.21-.37-.13-.7-.32-1.01-.54-.3-.23-.58-.49-.81-.81-.24-.31-.44-.67-.56-1.15.49-.02.89.07,1.26.21.37.13.7.32,1,.54.3.23.58.49.81.81.24.31.44.67.56,1.14Z"/>
    <path class="cls-11" d="M123.06,352.75c-.33.46-.71.78-1.11,1.06-.4.28-.82.5-1.26.67-.44.17-.9.3-1.38.36-.48.07-.98.09-1.54-.03.33-.46.71-.79,1.11-1.06.4-.28.82-.5,1.26-.67.44-.17.9-.3,1.38-.36.48-.07.98-.09,1.53.03Z"/>
    <path class="cls-11" d="M113.94,348.14c.38.29.61.62.78.95.19.33.3.68.38,1.03.07.36.1.72.05,1.1-.04.38-.13.76-.36,1.18-.38-.29-.61-.62-.79-.95-.19-.33-.3-.68-.37-1.03-.07-.36-.1-.72-.05-1.1.04-.38.13-.76.36-1.18Z"/>
    <path class="cls-11" d="M143.45,358.34c-.23.53-.55.94-.89,1.31-.34.37-.72.68-1.13.96-.41.27-.84.51-1.31.69-.47.18-.97.32-1.55.34.23-.53.55-.94.89-1.31.34-.37.72-.68,1.13-.96.41-.27.84-.51,1.31-.68.47-.18.96-.32,1.54-.34Z"/>
    <path class="cls-11" d="M143.59,348.7c.41.24.67.52.89.82.22.3.38.62.49.95.11.34.18.68.18,1.06,0,.37-.04.76-.22,1.19-.41-.24-.67-.52-.89-.82-.22-.3-.38-.62-.49-.95-.11-.34-.18-.69-.18-1.06,0-.37.04-.76.22-1.19Z"/>
    <path class="cls-11" d="M138.37,352.78c.48-.04.88.04,1.25.16.37.12.7.29,1.01.5.3.21.58.46.82.77.24.3.45.65.58,1.12-.48.04-.88-.04-1.25-.16-.37-.12-.7-.29-1.01-.5-.3-.22-.58-.47-.82-.78-.24-.3-.45-.65-.58-1.12Z"/>
    <path class="cls-11" d="M244.32,384.92c-.49.02-.89-.07-1.25-.21-.37-.13-.7-.32-1.01-.54-.3-.23-.58-.49-.81-.81-.24-.31-.44-.67-.56-1.15.49-.02.89.07,1.26.21.37.13.7.32,1,.54.3.23.58.49.81.81.24.31.44.67.56,1.14Z"/>
    <path class="cls-11" d="M246.36,378.2c-.33.46-.71.78-1.11,1.06-.4.28-.82.5-1.26.67-.44.17-.9.3-1.38.36-.48.07-.98.09-1.54-.03.33-.46.71-.79,1.11-1.06.4-.28.82-.5,1.26-.67.44-.17.9-.3,1.38-.36.48-.07.98-.09,1.53.03Z"/>
    <path class="cls-11" d="M238.59,374.25c.38.29.61.62.78.95.19.33.3.68.38,1.03.07.36.1.72.05,1.1-.04.38-.13.76-.36,1.18-.38-.29-.61-.62-.79-.95-.19-.33-.3-.68-.37-1.03-.07-.36-.1-.72-.05-1.1.04-.38.13-.76.36-1.18Z"/>
    <path class="cls-11" d="M257.91,384.16c-.23.53-.55.94-.89,1.31-.34.37-.72.68-1.13.96-.41.27-.84.51-1.31.69-.47.18-.97.32-1.55.34.23-.53.55-.94.89-1.31.34-.37.72-.68,1.13-.96.41-.27.84-.51,1.31-.68.47-.18.96-.32,1.54-.34Z"/>
    <path class="cls-11" d="M257.45,377.36c.41.24.67.52.89.82.22.3.38.62.49.95.11.34.18.68.18,1.06,0,.37-.04.76-.22,1.19-.41-.24-.67-.52-.89-.82-.22-.3-.38-.62-.49-.95-.11-.34-.18-.69-.18-1.06,0-.37.04-.76.22-1.19Z"/>
    <path class="cls-11" d="M252.76,379.85c.48-.04.88.04,1.25.16.37.12.7.29,1.01.5.3.21.58.46.82.77.24.3.45.65.58,1.12-.48.04-.88-.04-1.25-.16-.37-.12-.7-.29-1.01-.5-.3-.22-.58-.47-.82-.78-.24-.3-.45-.65-.58-1.12Z"/>
    <path class="cls-17" d="M102.86,115.14c-1.54.98-2.96,2.12-4.2,3.46-4.73,5.09-7.05,12.29-6.6,19.19.6,9.11,5.56,17.57,12.31,23.72,4.01,3.65,9.85,5.83,15.29,5.53-1.67-2.43-3.22-7.95-2.46-10.77.95-3.49,4.9-5.02,7.79-7.19,5.35-4.04,7.49-11.33,6.8-18-.69-6.67-3.81-12.84-7.32-18.56-.52-.84-1.09-1.72-1.98-2.15-.79-.38-1.7-.35-2.58-.28-5.72.44-12.04,1.87-17.06,5.05Z"/>
  </g>
</svg>